<svg width="1064" height="360" viewBox="0 0 1064 360" fill="none" xmlns="http://www.w3.org/2000/svg">
<g clip-path="url(#clip0_173_373)">
<path d="M148.954 92.1417C176.766 75.2213 188.402 53.1299 188.042 8.00021C168.352 7.95404 152.083 15.4232 145.4 17.4807C116.228 32.1407 97.7767 58.7958 96.244 100.437H95.6522C86.6471 57.4081 60.4431 30.593 8 32.8872C10.4155 65.2089 23.8232 90.144 49.4568 101.03C55.0548 103.407 84.1902 107.868 84.1902 107.868C84.1902 107.868 85.3504 98.0584 76.8419 89.1685C68.3333 80.2787 71.4274 81.4382 62.8838 72.1618C70.6539 77.573 73.6927 80.5141 78.3889 87.6225C83.0851 94.7309 84.9637 101.03 86.5107 107.868C88.0889 109.789 90.3231 128.539 90.3218 162.063V274.054V314.348C90.3211 319.147 89.532 323.74 90.9143 330.346C91.9827 332.01 92.8975 332.828 96.244 332.716C101.089 332.903 101.184 330.919 102.167 327.976C102.808 312.787 102.759 290.052 102.759 272.277V158.507C102.759 138.578 100.976 115.58 105.72 99.845C110.093 85.3417 119.915 74.9762 129.41 65.4775C131.581 63.1072 133.753 60.7369 135.925 58.3666C139.044 56.0971 141.816 53.609 145.4 51.8488H145.992C143.004 56.7838 139.496 58.3666 134.74 63.6996C129.835 70.4125 124.017 76.5518 119.342 83.2536C114.137 90.7146 111.263 96.5124 108.682 102.808L109.273 103.993C125.22 103.974 138.845 98.2927 148.954 92.1417Z" fill="#00A7ED"/>
<path d="M148.954 92.1417C176.766 75.2213 188.402 53.1299 188.042 8.00021C168.352 7.95404 152.083 15.4232 145.4 17.4807C116.228 32.1407 97.7767 58.7958 96.244 100.437H95.6522C86.6471 57.4081 60.4431 30.593 8 32.8872C10.4155 65.2089 23.8232 90.144 49.4568 101.03C55.0548 103.407 84.1902 107.868 84.1902 107.868C84.1902 107.868 85.3504 98.0584 76.8419 89.1685C68.3333 80.2787 71.4274 81.4382 62.8838 72.1618C70.6539 77.573 73.6927 80.5141 78.3889 87.6225C83.0851 94.7309 84.9637 101.03 86.5107 107.868C88.0889 109.789 90.3231 128.539 90.3218 162.063V274.054V314.348C90.3211 319.147 89.532 323.74 90.9143 330.346C91.9827 332.01 92.8975 332.828 96.244 332.716C101.089 332.903 101.184 330.919 102.167 327.976C102.808 312.787 102.759 290.052 102.759 272.277V158.507C102.759 138.578 100.976 115.58 105.72 99.845C110.093 85.3417 119.915 74.9762 129.41 65.4775C131.581 63.1072 133.753 60.7369 135.925 58.3666C139.044 56.0971 141.816 53.609 145.4 51.8488H145.992C143.004 56.7838 139.496 58.3666 134.74 63.6996C129.835 70.4125 124.017 76.5518 119.342 83.2536C114.137 90.7146 111.263 96.5124 108.682 102.808L109.273 103.993C125.22 103.974 138.845 98.2927 148.954 92.1417Z" fill="#1EB738"/>
<path fill-rule="evenodd" clip-rule="evenodd" d="M145.4 124.342C148.953 124.342 152.507 124.342 156.06 124.342C165.405 127.019 172.771 138.972 167.905 150.414C165.731 155.525 159.955 159.326 156.06 162.857C156.091 171.629 157.819 190.782 154.283 196.04C152.112 198.015 147.768 201.965 147.768 201.965L132.37 217.964C132.37 217.964 126.842 222.265 125.856 225.667C125.856 235.542 125.856 255.295 125.856 255.295V316.92C125.856 316.92 126.862 341.261 124.671 350.102C121.668 351.511 118.076 352.862 115.787 349.51C113.628 346.348 114.603 333.511 114.603 333.511C114.603 333.511 114.603 307.043 114.603 293.81C114.603 275.838 114.603 239.889 114.603 239.889C114.603 239.889 112.827 222.7 115.195 217.964C116.275 215.805 120.525 213.224 120.525 213.224L136.516 196.04C136.516 196.04 143.577 190.917 144.807 187.152C145.686 184.462 145.072 164.259 144.215 162.857C142.452 158.173 136.617 156.371 134.147 152.191C129.756 144.762 133.327 131.558 138.293 127.897C140.411 126.335 143.345 125.952 145.4 124.342ZM149.545 135.007C148.91 135.453 148.985 135.364 147.768 135.6C145.516 138.422 143.245 138.697 143.03 143.896C145.906 147.079 145.999 150.02 151.914 150.414C155.239 147.76 158.053 147.3 158.429 141.525C156.727 139.384 156.618 137.219 153.691 136.192C152.554 135.142 151.834 135.069 149.545 135.007ZM41.7571 161.672C55.3542 161.985 66.9044 174.755 60.7087 188.93C58.5302 193.913 52.6099 197.212 48.8643 200.78C48.8571 206.137 47.4013 215.616 49.4561 219.742C53.7858 228.436 69.1935 235.57 73.1462 245.221C75.1164 250.034 73.7381 259.395 73.7381 265.368C73.7387 281.302 73.7381 309.483 72.5538 315.734C70.3883 316.824 69.6454 317.48 66.0391 317.512C64.9947 315.899 63.0747 314.765 62.4855 312.772C62.4855 296.972 62.4855 281.168 62.4855 265.368C62.4855 260.628 62.4855 255.887 62.4855 251.147C60.3343 243.75 53.0715 240.643 48.8643 234.885C48.8643 234.885 45.6258 231.442 44.7182 230.408C42.4264 227.796 38.7908 225.794 37.6117 222.112C35.6467 215.98 40.1196 205.785 37.0192 200.78C35.3492 196.405 29.3879 194.675 26.9509 190.707C21.0931 181.169 26.0172 169.211 33.4656 164.635C35.8466 163.172 39.5688 163.313 41.7571 161.672ZM41.1646 173.523C38.3604 176.148 35.8856 176.836 35.2424 181.819C38.0446 185.326 38.6579 188.527 44.7182 188.93C48.3245 185.772 56.4838 178.037 46.495 174.708C45.2182 173.53 43.7845 173.482 41.1646 173.523ZM163.759 207.891C167.885 206.666 169.287 207.891 172.05 207.891C181.791 210.627 191.41 224.242 183.895 236.333C181.636 239.97 176.554 243.955 172.05 245.221C170.274 245.221 168.497 245.221 166.721 245.221C163.433 246.304 151.239 258.981 150.138 262.405C150.138 268.133 150.138 279.589 150.138 279.589C150.138 279.589 152.359 315.772 148.953 329.363C146.813 330.633 145.956 331.576 142.439 331.733C141.412 330.647 140.347 330.069 139.477 328.771C136.949 325.469 138.293 309.293 138.293 303.291C138.293 288.677 138.293 274.057 138.293 259.443C139.403 256.02 150.213 243.789 153.099 241.073C152.653 236.214 149.985 234.177 148.953 230.408C146.555 221.645 152.563 213.61 156.652 210.853C158.763 209.431 159.633 209.115 163.759 207.891ZM166.128 219.15C165.493 219.594 165.568 219.505 164.351 219.742C162.248 222.449 160.386 223.071 160.206 228.038C161.743 229.975 161.709 231.82 164.351 232.778C165.628 233.956 167.062 234.004 169.682 233.963C171.272 232.633 172.647 232.19 173.827 230.408C178.394 224.979 171.968 219.017 166.128 219.15Z" fill="#00A7ED"/>
</g>
<path d="M285.28 111.1V133.82H321.92V154.94H285.28V179.58H326.72V201.5H257.92V89.18H326.72V111.1H285.28ZM339.043 156.86C339.043 147.58 340.909 139.473 344.643 132.54C348.483 125.607 353.763 120.273 360.483 116.54C367.309 112.807 375.096 110.94 383.843 110.94C395.043 110.94 404.376 113.873 411.843 119.74C419.416 125.607 424.376 133.873 426.723 144.54H397.603C395.149 137.713 390.403 134.3 383.363 134.3C378.349 134.3 374.349 136.273 371.363 140.22C368.376 144.06 366.883 149.607 366.883 156.86C366.883 164.113 368.376 169.713 371.363 173.66C374.349 177.5 378.349 179.42 383.363 179.42C390.403 179.42 395.149 176.007 397.603 169.18H426.723C424.376 179.633 419.416 187.847 411.843 193.82C404.269 199.793 394.936 202.78 383.843 202.78C375.096 202.78 367.309 200.913 360.483 197.18C353.763 193.447 348.483 188.113 344.643 181.18C340.909 174.247 339.043 166.14 339.043 156.86ZM481.998 202.78C473.251 202.78 465.358 200.913 458.318 197.18C451.384 193.447 445.891 188.113 441.838 181.18C437.891 174.247 435.918 166.14 435.918 156.86C435.918 147.687 437.944 139.633 441.997 132.7C446.051 125.66 451.598 120.273 458.638 116.54C465.678 112.807 473.571 110.94 482.318 110.94C491.064 110.94 498.958 112.807 505.998 116.54C513.038 120.273 518.584 125.66 522.638 132.7C526.691 139.633 528.718 147.687 528.718 156.86C528.718 166.033 526.638 174.14 522.478 181.18C518.424 188.113 512.824 193.447 505.678 197.18C498.638 200.913 490.744 202.78 481.998 202.78ZM481.998 179.1C487.224 179.1 491.651 177.18 495.278 173.34C499.011 169.5 500.878 164.007 500.878 156.86C500.878 149.713 499.064 144.22 495.438 140.38C491.918 136.54 487.544 134.62 482.318 134.62C476.984 134.62 472.558 136.54 469.038 140.38C465.518 144.113 463.758 149.607 463.758 156.86C463.758 164.007 465.464 169.5 468.878 173.34C472.398 177.18 476.771 179.1 481.998 179.1Z" fill="#1EB738"/>
<path d="M586 89.18C597.84 89.18 608.187 91.5267 617.04 96.22C625.893 100.913 632.72 107.527 637.52 116.06C642.427 124.487 644.88 134.247 644.88 145.34C644.88 156.327 642.427 166.087 637.52 174.62C632.72 183.153 625.84 189.767 616.88 194.46C608.027 199.153 597.733 201.5 586 201.5H543.92V89.18H586ZM584.24 177.82C594.587 177.82 602.64 174.993 608.4 169.34C614.16 163.687 617.04 155.687 617.04 145.34C617.04 134.993 614.16 126.94 608.4 121.18C602.64 115.42 594.587 112.54 584.24 112.54H571.28V177.82H584.24ZM673.93 102.94C669.13 102.94 665.183 101.553 662.09 98.78C659.103 95.9 657.61 92.38 657.61 88.22C657.61 83.9533 659.103 80.4333 662.09 77.66C665.183 74.78 669.13 73.34 673.93 73.34C678.623 73.34 682.463 74.78 685.45 77.66C688.543 80.4333 690.09 83.9533 690.09 88.22C690.09 92.38 688.543 95.9 685.45 98.78C682.463 101.553 678.623 102.94 673.93 102.94ZM687.53 112.22V201.5H660.17V112.22H687.53ZM701.918 156.7C701.918 147.527 703.624 139.473 707.038 132.54C710.558 125.607 715.304 120.273 721.278 116.54C727.251 112.807 733.918 110.94 741.278 110.94C747.571 110.94 753.064 112.22 757.758 114.78C762.558 117.34 766.238 120.7 768.798 124.86V112.22H796.158V201.5H768.798V188.86C766.131 193.02 762.398 196.38 757.598 198.94C752.904 201.5 747.411 202.78 741.118 202.78C733.864 202.78 727.251 200.913 721.278 197.18C715.304 193.34 710.558 187.953 707.038 181.02C703.624 173.98 701.918 165.873 701.918 156.7ZM768.798 156.86C768.798 150.033 766.878 144.647 763.038 140.7C759.304 136.753 754.718 134.78 749.278 134.78C743.838 134.78 739.198 136.753 735.358 140.7C731.624 144.54 729.758 149.873 729.758 156.7C729.758 163.527 731.624 168.967 735.358 173.02C739.198 176.967 743.838 178.94 749.278 178.94C754.718 178.94 759.304 176.967 763.038 173.02C766.878 169.073 768.798 163.687 768.798 156.86ZM770.878 89.98L732.318 106.14V87.26L770.878 68.7V89.98ZM843.311 127.1C846.511 122.193 850.511 118.353 855.311 115.58C860.111 112.7 865.445 111.26 871.311 111.26V140.22H863.791C856.965 140.22 851.845 141.713 848.431 144.7C845.018 147.58 843.311 152.7 843.311 160.06V201.5H815.951V112.22H843.311V127.1ZM898.149 102.94C893.349 102.94 889.402 101.553 886.309 98.78C883.322 95.9 881.829 92.38 881.829 88.22C881.829 83.9533 883.322 80.4333 886.309 77.66C889.402 74.78 893.349 73.34 898.149 73.34C902.842 73.34 906.682 74.78 909.669 77.66C912.762 80.4333 914.309 83.9533 914.309 88.22C914.309 92.38 912.762 95.9 909.669 98.78C906.682 101.553 902.842 102.94 898.149 102.94ZM911.749 112.22V201.5H884.389V112.22H911.749ZM972.216 202.78C963.47 202.78 955.576 200.913 948.536 197.18C941.603 193.447 936.11 188.113 932.056 181.18C928.11 174.247 926.136 166.14 926.136 156.86C926.136 147.687 928.163 139.633 932.216 132.7C936.27 125.66 941.816 120.273 948.856 116.54C955.896 112.807 963.79 110.94 972.536 110.94C981.283 110.94 989.176 112.807 996.216 116.54C1003.26 120.273 1008.8 125.66 1012.86 132.7C1016.91 139.633 1018.94 147.687 1018.94 156.86C1018.94 166.033 1016.86 174.14 1012.7 181.18C1008.64 188.113 1003.04 193.447 995.896 197.18C988.856 200.913 980.963 202.78 972.216 202.78ZM972.216 179.1C977.443 179.1 981.87 177.18 985.496 173.34C989.23 169.5 991.096 164.007 991.096 156.86C991.096 149.713 989.283 144.22 985.656 140.38C982.136 136.54 977.763 134.62 972.536 134.62C967.203 134.62 962.776 136.54 959.256 140.38C955.736 144.113 953.976 149.607 953.976 156.86C953.976 164.007 955.683 169.5 959.096 173.34C962.616 177.18 966.99 179.1 972.216 179.1Z" fill="#00A7ED"/>
<path d="M254.9 246.968V258.974H267.09V261.642H254.9V273.832H268.47V276.5H251.68V244.3H268.47V246.968H254.9ZM273.343 263.896C273.343 261.32 273.864 259.066 274.907 257.134C275.949 255.171 277.375 253.669 279.185 252.626C281.025 251.553 283.095 251.016 285.395 251.016C287.603 251.016 289.596 251.553 291.375 252.626C293.153 253.699 294.457 255.095 295.285 256.812V242.46H298.505V276.5H295.285V270.888C294.518 272.636 293.261 274.077 291.513 275.212C289.765 276.316 287.71 276.868 285.349 276.868C283.049 276.868 280.979 276.331 279.139 275.258C277.329 274.185 275.903 272.667 274.861 270.704C273.849 268.741 273.343 266.472 273.343 263.896ZM295.285 263.942C295.285 261.918 294.871 260.139 294.043 258.606C293.215 257.073 292.08 255.892 290.639 255.064C289.228 254.236 287.664 253.822 285.947 253.822C284.168 253.822 282.573 254.221 281.163 255.018C279.752 255.815 278.633 256.981 277.805 258.514C277.007 260.017 276.609 261.811 276.609 263.896C276.609 265.951 277.007 267.76 277.805 269.324C278.633 270.857 279.752 272.038 281.163 272.866C282.573 273.663 284.168 274.062 285.947 274.062C287.664 274.062 289.228 273.648 290.639 272.82C292.08 271.992 293.215 270.811 294.043 269.278C294.871 267.745 295.285 265.966 295.285 263.942ZM327.614 251.384V276.5H324.394V272.084C323.658 273.648 322.523 274.844 320.99 275.672C319.456 276.5 317.739 276.914 315.838 276.914C312.832 276.914 310.379 275.994 308.478 274.154C306.576 272.283 305.626 269.585 305.626 266.058V251.384H308.8V265.69C308.8 268.419 309.474 270.505 310.824 271.946C312.204 273.387 314.074 274.108 316.436 274.108C318.858 274.108 320.79 273.341 322.232 271.808C323.673 270.275 324.394 268.021 324.394 265.046V251.384H327.614ZM333.493 263.942C333.493 261.335 334.014 259.066 335.057 257.134C336.1 255.171 337.541 253.669 339.381 252.626C341.221 251.553 343.322 251.016 345.683 251.016C348.78 251.016 351.326 251.783 353.319 253.316C355.343 254.849 356.646 256.935 357.229 259.572H353.779C353.35 257.763 352.414 256.352 350.973 255.34C349.562 254.297 347.799 253.776 345.683 253.776C343.996 253.776 342.478 254.159 341.129 254.926C339.78 255.693 338.706 256.843 337.909 258.376C337.142 259.879 336.759 261.734 336.759 263.942C336.759 266.15 337.142 268.021 337.909 269.554C338.706 271.087 339.78 272.237 341.129 273.004C342.478 273.771 343.996 274.154 345.683 274.154C347.799 274.154 349.562 273.648 350.973 272.636C352.414 271.593 353.35 270.152 353.779 268.312H357.229C356.646 270.888 355.343 272.958 353.319 274.522C351.295 276.086 348.75 276.868 345.683 276.868C343.322 276.868 341.221 276.347 339.381 275.304C337.541 274.231 336.1 272.728 335.057 270.796C334.014 268.833 333.493 266.549 333.493 263.942ZM361.704 263.896C361.704 261.32 362.21 259.066 363.222 257.134C364.265 255.171 365.691 253.669 367.5 252.626C369.34 251.553 371.41 251.016 373.71 251.016C376.102 251.016 378.157 251.568 379.874 252.672C381.622 253.776 382.879 255.187 383.646 256.904V251.384H386.866V276.5H383.646V270.934C382.849 272.651 381.576 274.077 379.828 275.212C378.111 276.316 376.056 276.868 373.664 276.868C371.395 276.868 369.34 276.331 367.5 275.258C365.691 274.185 364.265 272.667 363.222 270.704C362.21 268.741 361.704 266.472 361.704 263.896ZM383.646 263.942C383.646 261.918 383.232 260.139 382.404 258.606C381.576 257.073 380.441 255.892 379 255.064C377.589 254.236 376.025 253.822 374.308 253.822C372.529 253.822 370.935 254.221 369.524 255.018C368.113 255.815 366.994 256.981 366.166 258.514C365.369 260.017 364.97 261.811 364.97 263.896C364.97 265.951 365.369 267.76 366.166 269.324C366.994 270.857 368.113 272.038 369.524 272.866C370.935 273.663 372.529 274.062 374.308 274.062C376.025 274.062 377.589 273.648 379 272.82C380.441 271.992 381.576 270.811 382.404 269.278C383.232 267.745 383.646 265.966 383.646 263.942ZM404.935 274.154C407.051 274.154 408.814 273.648 410.225 272.636C411.666 271.593 412.602 270.152 413.031 268.312H416.481C415.929 270.735 414.733 272.713 412.893 274.246C411.084 275.779 408.784 276.638 405.993 276.822V279.582C407.802 279.521 409.228 279.858 410.271 280.594C411.344 281.361 411.881 282.449 411.881 283.86C411.881 285.24 411.39 286.329 410.409 287.126C409.428 287.954 408.124 288.368 406.499 288.368H401.899V286.206H405.855C406.99 286.206 407.818 286.007 408.339 285.608C408.891 285.24 409.167 284.657 409.167 283.86C409.167 282.388 408.063 281.652 405.855 281.652H403.739V276.822C401.592 276.638 399.691 276.009 398.035 274.936C396.379 273.832 395.076 272.345 394.125 270.474C393.205 268.573 392.745 266.395 392.745 263.942C392.745 261.335 393.266 259.066 394.309 257.134C395.352 255.171 396.793 253.669 398.633 252.626C400.473 251.553 402.574 251.016 404.935 251.016C408.032 251.016 410.578 251.783 412.571 253.316C414.595 254.849 415.898 256.935 416.481 259.572H413.031C412.602 257.763 411.666 256.352 410.225 255.34C408.814 254.297 407.051 253.776 404.935 253.776C403.248 253.776 401.73 254.159 400.381 254.926C399.032 255.693 397.958 256.843 397.161 258.376C396.394 259.879 396.011 261.734 396.011 263.942C396.011 266.15 396.394 268.021 397.161 269.554C397.958 271.087 399.032 272.237 400.381 273.004C401.73 273.771 403.248 274.154 404.935 274.154ZM420.956 263.896C420.956 261.32 421.462 259.066 422.474 257.134C423.517 255.171 424.943 253.669 426.752 252.626C428.592 251.553 430.662 251.016 432.962 251.016C435.354 251.016 437.409 251.568 439.126 252.672C440.874 253.776 442.131 255.187 442.898 256.904V251.384H446.118V276.5H442.898V270.934C442.101 272.651 440.828 274.077 439.08 275.212C437.363 276.316 435.308 276.868 432.916 276.868C430.647 276.868 428.592 276.331 426.752 275.258C424.943 274.185 423.517 272.667 422.474 270.704C421.462 268.741 420.956 266.472 420.956 263.896ZM442.898 263.942C442.898 261.918 442.484 260.139 441.656 258.606C440.828 257.073 439.693 255.892 438.252 255.064C436.841 254.236 435.277 253.822 433.56 253.822C431.781 253.822 430.187 254.221 428.776 255.018C427.365 255.815 426.246 256.981 425.418 258.514C424.621 260.017 424.222 261.811 424.222 263.896C424.222 265.951 424.621 267.76 425.418 269.324C426.246 270.857 427.365 272.038 428.776 272.866C430.187 273.663 431.781 274.062 433.56 274.062C435.277 274.062 436.841 273.648 438.252 272.82C439.693 271.992 440.828 270.811 441.656 269.278C442.484 267.745 442.898 265.966 442.898 263.942ZM428.27 248.624C428.454 247.244 428.899 246.186 429.604 245.45C430.309 244.714 431.214 244.346 432.318 244.346C432.87 244.346 433.345 244.453 433.744 244.668C434.143 244.852 434.618 245.128 435.17 245.496C435.63 245.833 436.029 246.094 436.366 246.278C436.703 246.431 437.071 246.508 437.47 246.508C437.991 246.508 438.436 246.339 438.804 246.002C439.172 245.634 439.402 245.113 439.494 244.438H441.426C441.303 245.787 440.859 246.845 440.092 247.612C439.356 248.348 438.436 248.716 437.332 248.716C436.749 248.716 436.243 248.624 435.814 248.44C435.415 248.225 434.94 247.919 434.388 247.52C433.959 247.183 433.575 246.937 433.238 246.784C432.931 246.631 432.579 246.554 432.18 246.554C431.076 246.554 430.432 247.244 430.248 248.624H428.27ZM464.463 276.868C462.102 276.868 459.97 276.347 458.069 275.304C456.198 274.231 454.711 272.728 453.607 270.796C452.534 268.833 451.997 266.549 451.997 263.942C451.997 261.335 452.549 259.066 453.653 257.134C454.757 255.171 456.26 253.669 458.161 252.626C460.062 251.553 462.194 251.016 464.555 251.016C466.916 251.016 469.048 251.553 470.949 252.626C472.881 253.669 474.384 255.171 475.457 257.134C476.561 259.066 477.113 261.335 477.113 263.942C477.113 266.518 476.561 268.787 475.457 270.75C474.353 272.713 472.835 274.231 470.903 275.304C468.971 276.347 466.824 276.868 464.463 276.868ZM464.463 274.062C466.119 274.062 467.652 273.694 469.063 272.958C470.474 272.191 471.608 271.057 472.467 269.554C473.356 268.021 473.801 266.15 473.801 263.942C473.801 261.734 473.372 259.879 472.513 258.376C471.654 256.843 470.52 255.708 469.109 254.972C467.698 254.205 466.165 253.822 464.509 253.822C462.853 253.822 461.32 254.205 459.909 254.972C458.498 255.708 457.364 256.843 456.505 258.376C455.677 259.879 455.263 261.734 455.263 263.942C455.263 266.15 455.677 268.021 456.505 269.554C457.364 271.057 458.483 272.191 459.863 272.958C461.274 273.694 462.807 274.062 464.463 274.062ZM518.33 262.654C518.33 263.758 518.299 264.601 518.238 265.184H497.4C497.492 267.085 497.952 268.711 498.78 270.06C499.608 271.409 500.696 272.437 502.046 273.142C503.395 273.817 504.867 274.154 506.462 274.154C508.547 274.154 510.295 273.648 511.706 272.636C513.147 271.624 514.098 270.259 514.558 268.542H517.962C517.348 270.995 516.03 273.004 514.006 274.568C512.012 276.101 509.498 276.868 506.462 276.868C504.1 276.868 501.984 276.347 500.114 275.304C498.243 274.231 496.771 272.728 495.698 270.796C494.655 268.833 494.134 266.549 494.134 263.942C494.134 261.335 494.655 259.051 495.698 257.088C496.74 255.125 498.197 253.623 500.068 252.58C501.938 251.537 504.07 251.016 506.462 251.016C508.854 251.016 510.939 251.537 512.718 252.58C514.527 253.623 515.907 255.033 516.858 256.812C517.839 258.56 518.33 260.507 518.33 262.654ZM515.064 262.562C515.094 260.691 514.711 259.097 513.914 257.778C513.147 256.459 512.089 255.463 510.74 254.788C509.39 254.113 507.918 253.776 506.324 253.776C503.932 253.776 501.892 254.543 500.206 256.076C498.519 257.609 497.584 259.771 497.4 262.562H515.064ZM557.406 253.592C557.406 256.352 556.501 258.575 554.692 260.262C552.883 261.949 550.169 262.792 546.55 262.792H540.064V276.5H536.844V244.346H546.55C550.138 244.346 552.837 245.189 554.646 246.876C556.486 248.563 557.406 250.801 557.406 253.592ZM546.55 260.032C551.579 260.032 554.094 257.885 554.094 253.592C554.094 251.445 553.496 249.82 552.3 248.716C551.104 247.612 549.187 247.06 546.55 247.06H540.064V260.032H546.55ZM566.029 255.846C566.734 254.282 567.808 253.071 569.249 252.212C570.721 251.353 572.515 250.924 574.631 250.924V254.282H573.757C571.426 254.282 569.556 254.911 568.145 256.168C566.734 257.425 566.029 259.526 566.029 262.47V276.5H562.809V251.384H566.029V255.846ZM578.003 263.896C578.003 261.32 578.509 259.066 579.521 257.134C580.564 255.171 581.99 253.669 583.799 252.626C585.639 251.553 587.709 251.016 590.009 251.016C592.401 251.016 594.456 251.568 596.173 252.672C597.921 253.776 599.178 255.187 599.945 256.904V251.384H603.165V276.5H599.945V270.934C599.148 272.651 597.875 274.077 596.127 275.212C594.41 276.316 592.355 276.868 589.963 276.868C587.694 276.868 585.639 276.331 583.799 275.258C581.99 274.185 580.564 272.667 579.521 270.704C578.509 268.741 578.003 266.472 578.003 263.896ZM599.945 263.942C599.945 261.918 599.531 260.139 598.703 258.606C597.875 257.073 596.74 255.892 595.299 255.064C593.888 254.236 592.324 253.822 590.607 253.822C588.828 253.822 587.234 254.221 585.823 255.018C584.412 255.815 583.293 256.981 582.465 258.514C581.668 260.017 581.269 261.811 581.269 263.896C581.269 265.951 581.668 267.76 582.465 269.324C583.293 270.857 584.412 272.038 585.823 272.866C587.234 273.663 588.828 274.062 590.607 274.062C592.324 274.062 593.888 273.648 595.299 272.82C596.74 271.992 597.875 270.811 598.703 269.278C599.531 267.745 599.945 265.966 599.945 263.942ZM595.621 243.978L586.191 249.452V246.968L595.621 241.08V243.978ZM614.702 254.098V269.692C614.702 271.225 614.993 272.283 615.576 272.866C616.159 273.449 617.186 273.74 618.658 273.74H621.602V276.5H618.152C615.883 276.5 614.196 275.979 613.092 274.936C611.988 273.863 611.436 272.115 611.436 269.692V254.098H607.94V251.384H611.436V245.082H614.702V251.384H621.602V254.098H614.702ZM628.522 246.646C627.878 246.646 627.326 246.416 626.866 245.956C626.406 245.496 626.176 244.929 626.176 244.254C626.176 243.579 626.406 243.027 626.866 242.598C627.326 242.138 627.878 241.908 628.522 241.908C629.166 241.908 629.718 242.138 630.178 242.598C630.638 243.027 630.868 243.579 630.868 244.254C630.868 244.929 630.638 245.496 630.178 245.956C629.718 246.416 629.166 246.646 628.522 246.646ZM630.132 251.384V276.5H626.912V251.384H630.132ZM635.952 263.942C635.952 261.335 636.473 259.066 637.516 257.134C638.559 255.171 640 253.669 641.84 252.626C643.68 251.553 645.781 251.016 648.142 251.016C651.239 251.016 653.785 251.783 655.778 253.316C657.802 254.849 659.105 256.935 659.688 259.572H656.238C655.809 257.763 654.873 256.352 653.432 255.34C652.021 254.297 650.258 253.776 648.142 253.776C646.455 253.776 644.937 254.159 643.588 254.926C642.239 255.693 641.165 256.843 640.368 258.376C639.601 259.879 639.218 261.734 639.218 263.942C639.218 266.15 639.601 268.021 640.368 269.554C641.165 271.087 642.239 272.237 643.588 273.004C644.937 273.771 646.455 274.154 648.142 274.154C650.258 274.154 652.021 273.648 653.432 272.636C654.873 271.593 655.809 270.152 656.238 268.312H659.688C659.105 270.888 657.802 272.958 655.778 274.522C653.754 276.086 651.209 276.868 648.142 276.868C645.781 276.868 643.68 276.347 641.84 275.304C640 274.231 638.559 272.728 637.516 270.796C636.473 268.833 635.952 266.549 635.952 263.942ZM664.163 263.896C664.163 261.32 664.669 259.066 665.681 257.134C666.724 255.171 668.15 253.669 669.959 252.626C671.799 251.553 673.869 251.016 676.169 251.016C678.561 251.016 680.616 251.568 682.333 252.672C684.081 253.776 685.338 255.187 686.105 256.904V251.384H689.325V276.5H686.105V270.934C685.308 272.651 684.035 274.077 682.287 275.212C680.57 276.316 678.515 276.868 676.123 276.868C673.854 276.868 671.799 276.331 669.959 275.258C668.15 274.185 666.724 272.667 665.681 270.704C664.669 268.741 664.163 266.472 664.163 263.896ZM686.105 263.942C686.105 261.918 685.691 260.139 684.863 258.606C684.035 257.073 682.9 255.892 681.459 255.064C680.048 254.236 678.484 253.822 676.767 253.822C674.988 253.822 673.394 254.221 671.983 255.018C670.572 255.815 669.453 256.981 668.625 258.514C667.828 260.017 667.429 261.811 667.429 263.896C667.429 265.951 667.828 267.76 668.625 269.324C669.453 270.857 670.572 272.038 671.983 272.866C673.394 273.663 674.988 274.062 676.767 274.062C678.484 274.062 680.048 273.648 681.459 272.82C682.9 271.992 684.035 270.811 684.863 269.278C685.691 267.745 686.105 265.966 686.105 263.942ZM705.324 276.868C702.441 276.868 700.08 276.209 698.24 274.89C696.431 273.541 695.419 271.716 695.204 269.416H698.516C698.669 270.827 699.329 271.977 700.494 272.866C701.69 273.725 703.285 274.154 705.278 274.154C707.026 274.154 708.391 273.74 709.372 272.912C710.384 272.084 710.89 271.057 710.89 269.83C710.89 268.971 710.614 268.266 710.062 267.714C709.51 267.162 708.805 266.733 707.946 266.426C707.118 266.089 705.983 265.736 704.542 265.368C702.671 264.877 701.153 264.387 699.988 263.896C698.823 263.405 697.826 262.685 696.998 261.734C696.201 260.753 695.802 259.449 695.802 257.824C695.802 256.597 696.17 255.463 696.906 254.42C697.642 253.377 698.685 252.549 700.034 251.936C701.383 251.323 702.917 251.016 704.634 251.016C707.333 251.016 709.51 251.706 711.166 253.086C712.822 254.435 713.711 256.306 713.834 258.698H710.614C710.522 257.226 709.939 256.045 708.866 255.156C707.823 254.236 706.382 253.776 704.542 253.776C702.917 253.776 701.598 254.159 700.586 254.926C699.574 255.693 699.068 256.643 699.068 257.778C699.068 258.759 699.359 259.572 699.942 260.216C700.555 260.829 701.307 261.32 702.196 261.688C703.085 262.025 704.281 262.409 705.784 262.838C707.593 263.329 709.035 263.804 710.108 264.264C711.181 264.724 712.101 265.399 712.868 266.288C713.635 267.177 714.033 268.358 714.064 269.83C714.064 271.179 713.696 272.391 712.96 273.464C712.224 274.507 711.197 275.335 709.878 275.948C708.559 276.561 707.041 276.868 705.324 276.868ZM742.5 276.822C740.384 276.822 738.514 276.454 736.888 275.718C735.294 274.982 734.036 273.955 733.116 272.636C732.196 271.317 731.706 269.845 731.644 268.22H735.048C735.202 269.784 735.892 271.164 737.118 272.36C738.345 273.525 740.139 274.108 742.5 274.108C744.678 274.108 746.395 273.556 747.652 272.452C748.94 271.317 749.584 269.891 749.584 268.174C749.584 266.794 749.232 265.69 748.526 264.862C747.821 264.003 746.947 263.375 745.904 262.976C744.862 262.547 743.42 262.087 741.58 261.596C739.434 261.013 737.732 260.446 736.474 259.894C735.217 259.342 734.144 258.483 733.254 257.318C732.365 256.153 731.92 254.573 731.92 252.58C731.92 250.924 732.35 249.452 733.208 248.164C734.067 246.845 735.278 245.818 736.842 245.082C738.406 244.346 740.2 243.978 742.224 243.978C745.199 243.978 747.591 244.714 749.4 246.186C751.24 247.627 752.298 249.498 752.574 251.798H749.078C748.864 250.479 748.143 249.314 746.916 248.302C745.69 247.259 744.034 246.738 741.948 246.738C740.016 246.738 738.406 247.259 737.118 248.302C735.83 249.314 735.186 250.709 735.186 252.488C735.186 253.837 735.539 254.926 736.244 255.754C736.95 256.582 737.824 257.211 738.866 257.64C739.94 258.069 741.381 258.529 743.19 259.02C745.276 259.603 746.962 260.185 748.25 260.768C749.538 261.32 750.627 262.179 751.516 263.344C752.406 264.509 752.85 266.073 752.85 268.036C752.85 269.539 752.452 270.965 751.654 272.314C750.857 273.663 749.676 274.752 748.112 275.58C746.548 276.408 744.678 276.822 742.5 276.822ZM780.831 251.384V276.5H777.611V272.084C776.875 273.648 775.74 274.844 774.207 275.672C772.673 276.5 770.956 276.914 769.055 276.914C766.049 276.914 763.596 275.994 761.695 274.154C759.793 272.283 758.843 269.585 758.843 266.058V251.384H762.017V265.69C762.017 268.419 762.691 270.505 764.041 271.946C765.421 273.387 767.291 274.108 769.653 274.108C772.075 274.108 774.007 273.341 775.449 271.808C776.89 270.275 777.611 268.021 777.611 265.046V251.384H780.831ZM796.83 276.868C793.947 276.868 791.586 276.209 789.746 274.89C787.937 273.541 786.925 271.716 786.71 269.416H790.022C790.175 270.827 790.835 271.977 792 272.866C793.196 273.725 794.791 274.154 796.784 274.154C798.532 274.154 799.897 273.74 800.878 272.912C801.89 272.084 802.396 271.057 802.396 269.83C802.396 268.971 802.12 268.266 801.568 267.714C801.016 267.162 800.311 266.733 799.452 266.426C798.624 266.089 797.489 265.736 796.048 265.368C794.177 264.877 792.659 264.387 791.494 263.896C790.329 263.405 789.332 262.685 788.504 261.734C787.707 260.753 787.308 259.449 787.308 257.824C787.308 256.597 787.676 255.463 788.412 254.42C789.148 253.377 790.191 252.549 791.54 251.936C792.889 251.323 794.423 251.016 796.14 251.016C798.839 251.016 801.016 251.706 802.672 253.086C804.328 254.435 805.217 256.306 805.34 258.698H802.12C802.028 257.226 801.445 256.045 800.372 255.156C799.329 254.236 797.888 253.776 796.048 253.776C794.423 253.776 793.104 254.159 792.092 254.926C791.08 255.693 790.574 256.643 790.574 257.778C790.574 258.759 790.865 259.572 791.448 260.216C792.061 260.829 792.813 261.32 793.702 261.688C794.591 262.025 795.787 262.409 797.29 262.838C799.099 263.329 800.541 263.804 801.614 264.264C802.687 264.724 803.607 265.399 804.374 266.288C805.141 267.177 805.539 268.358 805.57 269.83C805.57 271.179 805.202 272.391 804.466 273.464C803.73 274.507 802.703 275.335 801.384 275.948C800.065 276.561 798.547 276.868 796.83 276.868ZM815.817 254.098V269.692C815.817 271.225 816.109 272.283 816.691 272.866C817.274 273.449 818.301 273.74 819.773 273.74H822.717V276.5H819.267C816.998 276.5 815.311 275.979 814.207 274.936C813.103 273.863 812.551 272.115 812.551 269.692V254.098H809.055V251.384H812.551V245.082H815.817V251.384H822.717V254.098H815.817ZM850.752 262.654C850.752 263.758 850.721 264.601 850.66 265.184H829.822C829.914 267.085 830.374 268.711 831.202 270.06C832.03 271.409 833.118 272.437 834.468 273.142C835.817 273.817 837.289 274.154 838.884 274.154C840.969 274.154 842.717 273.648 844.128 272.636C845.569 271.624 846.52 270.259 846.98 268.542H850.384C849.77 270.995 848.452 273.004 846.428 274.568C844.434 276.101 841.92 276.868 838.884 276.868C836.522 276.868 834.406 276.347 832.536 275.304C830.665 274.231 829.193 272.728 828.12 270.796C827.077 268.833 826.556 266.549 826.556 263.942C826.556 261.335 827.077 259.051 828.12 257.088C829.162 255.125 830.619 253.623 832.49 252.58C834.36 251.537 836.492 251.016 838.884 251.016C841.276 251.016 843.361 251.537 845.14 252.58C846.949 253.623 848.329 255.033 849.28 256.812C850.261 258.56 850.752 260.507 850.752 262.654ZM847.486 262.562C847.516 260.691 847.133 259.097 846.336 257.778C845.569 256.459 844.511 255.463 843.162 254.788C841.812 254.113 840.34 253.776 838.746 253.776C836.354 253.776 834.314 254.543 832.628 256.076C830.941 257.609 830.006 259.771 829.822 262.562H847.486ZM868.419 250.924C871.424 250.924 873.878 251.859 875.779 253.73C877.68 255.57 878.631 258.253 878.631 261.78V276.5H875.457V262.148C875.457 259.419 874.767 257.333 873.387 255.892C872.038 254.451 870.182 253.73 867.821 253.73C865.398 253.73 863.466 254.497 862.025 256.03C860.584 257.563 859.863 259.817 859.863 262.792V276.5H856.643V251.384H859.863V255.662C860.66 254.129 861.81 252.963 863.313 252.166C864.816 251.338 866.518 250.924 868.419 250.924ZM889.938 254.098V269.692C889.938 271.225 890.23 272.283 890.812 272.866C891.395 273.449 892.422 273.74 893.894 273.74H896.838V276.5H893.388C891.119 276.5 889.432 275.979 888.328 274.936C887.224 273.863 886.672 272.115 886.672 269.692V254.098H883.176V251.384H886.672V245.082H889.938V251.384H896.838V254.098H889.938ZM900.677 263.896C900.677 261.32 901.183 259.066 902.195 257.134C903.237 255.171 904.663 253.669 906.473 252.626C908.313 251.553 910.383 251.016 912.683 251.016C915.075 251.016 917.129 251.568 918.847 252.672C920.595 253.776 921.852 255.187 922.619 256.904V251.384H925.839V276.5H922.619V270.934C921.821 272.651 920.549 274.077 918.801 275.212C917.083 276.316 915.029 276.868 912.637 276.868C910.367 276.868 908.313 276.331 906.473 275.258C904.663 274.185 903.237 272.667 902.195 270.704C901.183 268.741 900.677 266.472 900.677 263.896ZM922.619 263.942C922.619 261.918 922.205 260.139 921.377 258.606C920.549 257.073 919.414 255.892 917.973 255.064C916.562 254.236 914.998 253.822 913.281 253.822C911.502 253.822 909.907 254.221 908.497 255.018C907.086 255.815 905.967 256.981 905.139 258.514C904.341 260.017 903.943 261.811 903.943 263.896C903.943 265.951 904.341 267.76 905.139 269.324C905.967 270.857 907.086 272.038 908.497 272.866C909.907 273.663 911.502 274.062 913.281 274.062C914.998 274.062 916.562 273.648 917.973 272.82C919.414 271.992 920.549 270.811 921.377 269.278C922.205 267.745 922.619 265.966 922.619 263.942ZM918.295 243.978L908.865 249.452V246.968L918.295 241.08V243.978ZM942.114 273.372L950.578 251.384H953.982L943.908 276.5H940.274L930.2 251.384H933.65L942.114 273.372ZM981.07 262.654C981.07 263.758 981.039 264.601 980.978 265.184H960.14C960.232 267.085 960.692 268.711 961.52 270.06C962.348 271.409 963.437 272.437 964.786 273.142C966.135 273.817 967.607 274.154 969.202 274.154C971.287 274.154 973.035 273.648 974.446 272.636C975.887 271.624 976.838 270.259 977.298 268.542H980.702C980.089 270.995 978.77 273.004 976.746 274.568C974.753 276.101 972.238 276.868 969.202 276.868C966.841 276.868 964.725 276.347 962.854 275.304C960.983 274.231 959.511 272.728 958.438 270.796C957.395 268.833 956.874 266.549 956.874 263.942C956.874 261.335 957.395 259.051 958.438 257.088C959.481 255.125 960.937 253.623 962.808 252.58C964.679 251.537 966.81 251.016 969.202 251.016C971.594 251.016 973.679 251.537 975.458 252.58C977.267 253.623 978.647 255.033 979.598 256.812C980.579 258.56 981.07 260.507 981.07 262.654ZM977.804 262.562C977.835 260.691 977.451 259.097 976.654 257.778C975.887 256.459 974.829 255.463 973.48 254.788C972.131 254.113 970.659 253.776 969.064 253.776C966.672 253.776 964.633 254.543 962.946 256.076C961.259 257.609 960.324 259.771 960.14 262.562H977.804ZM988.571 246.646C987.927 246.646 987.375 246.416 986.915 245.956C986.455 245.496 986.225 244.929 986.225 244.254C986.225 243.579 986.455 243.027 986.915 242.598C987.375 242.138 987.927 241.908 988.571 241.908C989.215 241.908 989.767 242.138 990.227 242.598C990.687 243.027 990.917 243.579 990.917 244.254C990.917 244.929 990.687 245.496 990.227 245.956C989.767 246.416 989.215 246.646 988.571 246.646ZM990.181 251.384V276.5H986.961V251.384H990.181ZM1006.12 276.868C1003.24 276.868 1000.88 276.209 999.037 274.89C997.228 273.541 996.216 271.716 996.001 269.416H999.313C999.466 270.827 1000.13 271.977 1001.29 272.866C1002.49 273.725 1004.08 274.154 1006.07 274.154C1007.82 274.154 1009.19 273.74 1010.17 272.912C1011.18 272.084 1011.69 271.057 1011.69 269.83C1011.69 268.971 1011.41 268.266 1010.86 267.714C1010.31 267.162 1009.6 266.733 1008.74 266.426C1007.91 266.089 1006.78 265.736 1005.34 265.368C1003.47 264.877 1001.95 264.387 1000.78 263.896C999.62 263.405 998.623 262.685 997.795 261.734C996.998 260.753 996.599 259.449 996.599 257.824C996.599 256.597 996.967 255.463 997.703 254.42C998.439 253.377 999.482 252.549 1000.83 251.936C1002.18 251.323 1003.71 251.016 1005.43 251.016C1008.13 251.016 1010.31 251.706 1011.96 253.086C1013.62 254.435 1014.51 256.306 1014.63 258.698H1011.41C1011.32 257.226 1010.74 256.045 1009.66 255.156C1008.62 254.236 1007.18 253.776 1005.34 253.776C1003.71 253.776 1002.39 254.159 1001.38 254.926C1000.37 255.693 999.865 256.643 999.865 257.778C999.865 258.759 1000.16 259.572 1000.74 260.216C1001.35 260.829 1002.1 261.32 1002.99 261.688C1003.88 262.025 1005.08 262.409 1006.58 262.838C1008.39 263.329 1009.83 263.804 1010.9 264.264C1011.98 264.724 1012.9 265.399 1013.66 266.288C1014.43 267.177 1014.83 268.358 1014.86 269.83C1014.86 271.179 1014.49 272.391 1013.76 273.464C1013.02 274.507 1011.99 275.335 1010.67 275.948C1009.36 276.561 1007.84 276.868 1006.12 276.868Z" fill="#555555"/>
<defs>
<clipPath id="clip0_173_373">
<rect width="181" height="344" fill="white" transform="translate(8 8)"/>
</clipPath>
</defs>
</svg>
