<svg width="1200" height="630" viewBox="0 0 1200 630" fill="none" xmlns="http://www.w3.org/2000/svg">
<rect width="1200" height="630" fill="white"/>
<path d="M1026.49 180.392C1069.21 154.372 1087.08 120.4 1086.53 51.0003C1056.29 50.9293 1031.3 62.4153 1021.03 65.5793C976.228 88.1233 947.889 129.113 945.535 193.149H944.626C930.795 126.979 890.548 85.7433 810 89.2713C813.71 138.975 834.303 177.32 873.674 194.061C882.272 197.717 927.021 204.576 927.021 204.576C927.021 204.576 928.803 189.491 915.735 175.82C902.667 162.149 907.419 163.933 894.297 149.667C906.231 157.989 910.898 162.511 918.111 173.443C925.324 184.374 928.209 194.061 930.585 204.576C933.009 207.531 936.441 236.363 936.439 287.916V460.135V522.098C936.438 529.478 935.226 536.542 937.349 546.701C938.99 549.259 940.395 550.517 945.535 550.345C952.977 550.633 953.123 547.581 954.632 543.056C955.616 519.698 955.542 484.736 955.541 457.402V282.448C955.542 251.802 952.803 216.435 960.089 192.238C966.806 169.935 981.892 153.995 996.475 139.388C999.81 135.743 1003.15 132.098 1006.48 128.453C1011.27 124.963 1015.53 121.137 1021.03 118.43H1021.94C1017.35 126.019 1011.97 128.453 1004.66 136.654C997.128 146.977 988.192 156.418 981.011 166.724C973.017 178.198 968.603 187.113 964.638 196.794C964.941 197.402 965.244 198.009 965.547 198.617C990.04 198.587 1010.97 189.851 1026.49 180.392Z" fill="#00A7ED"/>
<path d="M1026.49 180.392C1069.21 154.372 1087.08 120.4 1086.53 51.0003C1056.29 50.9293 1031.3 62.4153 1021.03 65.5793C976.228 88.1233 947.889 129.113 945.535 193.149H944.626C930.795 126.979 890.548 85.7433 810 89.2713C813.71 138.975 834.303 177.32 873.674 194.061C882.272 197.717 927.021 204.576 927.021 204.576C927.021 204.576 928.803 189.491 915.735 175.82C902.667 162.149 907.419 163.933 894.297 149.667C906.231 157.989 910.898 162.511 918.111 173.443C925.324 184.374 928.209 194.061 930.585 204.576C933.009 207.531 936.441 236.363 936.439 287.916V460.135V522.098C936.438 529.478 935.226 536.542 937.349 546.701C938.99 549.259 940.395 550.517 945.535 550.345C952.977 550.633 953.123 547.581 954.632 543.056C955.616 519.698 955.542 484.736 955.541 457.402V282.448C955.542 251.802 952.803 216.435 960.089 192.238C966.806 169.935 981.892 153.995 996.475 139.388C999.81 135.743 1003.15 132.098 1006.48 128.453C1011.27 124.963 1015.53 121.137 1021.03 118.43H1021.94C1017.35 126.019 1011.97 128.453 1004.66 136.654C997.128 146.977 988.192 156.418 981.011 166.724C973.017 178.198 968.603 187.113 964.638 196.794C964.941 197.402 965.244 198.009 965.547 198.617C990.04 198.587 1010.97 189.851 1026.49 180.392Z" fill="#1EB738"/>
<path fill-rule="evenodd" clip-rule="evenodd" d="M1021.03 229.909C1026.49 229.909 1031.95 229.909 1037.41 229.909C1051.76 234.026 1063.07 252.407 1055.6 270.003C1052.26 277.863 1043.39 283.707 1037.41 289.138C1037.45 302.627 1040.11 332.08 1034.68 340.166C1031.34 343.203 1024.67 349.278 1024.67 349.278L1001.02 373.881C1001.02 373.881 992.531 380.494 991.016 385.727C991.016 400.912 991.016 431.288 991.016 431.288V526.054C991.016 526.054 992.561 563.486 989.197 577.082C984.584 579.248 979.067 581.326 975.552 576.171C972.236 571.308 973.733 551.568 973.733 551.568C973.733 551.568 973.733 510.865 973.733 490.516C973.733 462.879 973.733 407.596 973.733 407.596C973.733 407.596 971.005 381.163 974.642 373.881C976.301 370.561 982.829 366.591 982.829 366.591L1007.39 340.166C1007.39 340.166 1018.23 332.288 1020.12 326.498C1021.47 322.361 1020.53 291.293 1019.21 289.138C1016.51 281.935 1007.54 279.163 1003.75 272.736C997.007 261.312 1002.49 241.007 1010.12 235.376C1013.37 232.975 1017.88 232.385 1021.03 229.909ZM1027.4 246.311C1026.42 246.996 1026.54 246.859 1024.67 247.222C1021.21 251.562 1017.72 251.984 1017.39 259.979C1021.81 264.875 1021.95 269.397 1031.04 270.003C1036.15 265.922 1040.47 265.215 1041.05 256.334C1038.43 253.041 1038.26 249.712 1033.77 248.133C1032.02 246.518 1030.92 246.406 1027.4 246.311ZM861.848 287.316C882.732 287.797 900.472 307.435 890.956 329.232C887.61 336.895 878.517 341.969 872.764 347.456C872.753 355.694 870.517 370.27 873.673 376.615C880.323 389.985 903.988 400.955 910.059 415.797C913.085 423.197 910.968 437.593 910.968 446.778C910.969 471.281 910.968 514.618 909.149 524.231C905.823 525.907 904.682 526.916 899.143 526.965C897.539 524.485 894.59 522.74 893.685 519.675C893.685 495.379 893.685 471.075 893.685 446.778C893.685 439.489 893.685 432.198 893.685 424.909C890.381 413.534 879.226 408.756 872.764 399.902C872.764 399.902 867.79 394.607 866.396 393.017C862.876 389.001 857.292 385.921 855.481 380.26C852.463 370.829 859.333 355.152 854.571 347.456C852.006 340.728 842.85 338.067 839.107 331.965C830.11 317.297 837.673 298.909 849.113 291.872C852.77 289.622 858.487 289.839 861.848 287.316ZM860.938 305.54C856.631 309.576 852.83 310.634 851.842 318.297C856.146 323.69 857.088 328.613 866.396 329.232C871.935 324.376 884.467 312.481 869.125 307.362C867.164 305.551 864.962 305.477 860.938 305.54ZM1049.23 358.39C1055.57 356.507 1057.72 358.39 1061.97 358.39C1076.93 362.598 1091.7 383.535 1080.16 402.129C1076.69 407.721 1068.88 413.85 1061.97 415.797C1059.24 415.797 1056.51 415.797 1053.78 415.797C1048.73 417.461 1030 436.956 1028.31 442.222C1028.31 451.03 1028.31 468.647 1028.31 468.647C1028.31 468.647 1031.72 524.289 1026.49 545.189C1023.2 547.142 1021.89 548.592 1016.49 548.834C1014.91 547.164 1013.27 546.275 1011.94 544.278C1008.05 539.201 1010.12 514.325 1010.12 505.096C1010.12 482.622 1010.12 460.14 1010.12 437.666C1011.82 432.403 1028.43 413.594 1032.86 409.418C1032.17 401.946 1028.08 398.813 1026.49 393.017C1022.81 379.542 1032.04 367.185 1038.32 362.946C1041.56 360.759 1042.89 360.273 1049.23 358.39ZM1052.87 375.704C1051.89 376.388 1052.01 376.251 1050.14 376.615C1046.91 380.778 1044.05 381.734 1043.77 389.372C1046.13 392.351 1046.08 395.188 1050.14 396.661C1052.1 398.473 1054.3 398.547 1058.33 398.484C1060.77 396.438 1062.88 395.758 1064.7 393.017C1071.71 384.668 1061.84 375.5 1052.87 375.704Z" fill="#00A7ED"/>
<path d="M137.882 124.99V146.858H173.148V167.186H137.882V190.902H177.768V212H111.548V103.892H177.768V124.99H137.882ZM189.628 169.034C189.628 160.102 191.425 152.299 195.018 145.626C198.714 138.953 203.796 133.819 210.264 130.226C216.835 126.633 224.33 124.836 232.748 124.836C243.528 124.836 252.512 127.659 259.698 133.306C266.988 138.953 271.762 146.909 274.02 157.176H245.992C243.631 150.605 239.062 147.32 232.286 147.32C227.461 147.32 223.611 149.219 220.736 153.018C217.862 156.714 216.424 162.053 216.424 169.034C216.424 176.015 217.862 181.405 220.736 185.204C223.611 188.9 227.461 190.748 232.286 190.748C239.062 190.748 243.631 187.463 245.992 180.892H274.02C271.762 190.953 266.988 198.859 259.698 204.608C252.409 210.357 243.426 213.232 232.748 213.232C224.33 213.232 216.835 211.435 210.264 207.842C203.796 204.249 198.714 199.115 195.018 192.442C191.425 185.769 189.628 177.966 189.628 169.034ZM327.223 213.232C318.804 213.232 311.207 211.435 304.431 207.842C297.757 204.249 292.47 199.115 288.569 192.442C284.77 185.769 282.871 177.966 282.871 169.034C282.871 160.205 284.821 152.453 288.723 145.78C292.624 139.004 297.963 133.819 304.739 130.226C311.515 126.633 319.112 124.836 327.531 124.836C335.949 124.836 343.547 126.633 350.323 130.226C357.099 133.819 362.437 139.004 366.339 145.78C370.24 152.453 372.191 160.205 372.191 169.034C372.191 177.863 370.189 185.666 366.185 192.442C362.283 199.115 356.893 204.249 350.015 207.842C343.239 211.435 335.641 213.232 327.223 213.232ZM327.223 190.44C332.253 190.44 336.514 188.592 340.005 184.896C343.598 181.2 345.395 175.913 345.395 169.034C345.395 162.155 343.649 156.868 340.159 153.172C336.771 149.476 332.561 147.628 327.531 147.628C322.397 147.628 318.137 149.476 314.749 153.172C311.361 156.765 309.667 162.053 309.667 169.034C309.667 175.913 311.309 181.2 314.595 184.896C317.983 188.592 322.192 190.44 327.223 190.44Z" fill="#1EB738"/>
<path d="M152.05 264.892C163.446 264.892 173.405 267.151 181.926 271.668C190.447 276.185 197.018 282.551 201.638 290.764C206.361 298.875 208.722 308.269 208.722 318.946C208.722 329.521 206.361 338.915 201.638 347.128C197.018 355.341 190.396 361.707 181.772 366.224C173.251 370.741 163.343 373 152.05 373H111.548V264.892H152.05ZM150.356 350.208C160.315 350.208 168.066 347.487 173.61 342.046C179.154 336.605 181.926 328.905 181.926 318.946C181.926 308.987 179.154 301.236 173.61 295.692C168.066 290.148 160.315 287.376 150.356 287.376H137.882V350.208H150.356ZM236.683 278.136C232.063 278.136 228.264 276.801 225.287 274.132C222.412 271.36 220.975 267.972 220.975 263.968C220.975 259.861 222.412 256.473 225.287 253.804C228.264 251.032 232.063 249.646 236.683 249.646C241.2 249.646 244.896 251.032 247.771 253.804C250.748 256.473 252.237 259.861 252.237 263.968C252.237 267.972 250.748 271.36 247.771 274.132C244.896 276.801 241.2 278.136 236.683 278.136ZM249.773 287.068V373H223.439V287.068H249.773ZM263.621 329.88C263.621 321.051 265.263 313.299 268.549 306.626C271.937 299.953 276.505 294.819 282.255 291.226C288.004 287.633 294.421 285.836 301.505 285.836C307.562 285.836 312.849 287.068 317.367 289.532C321.987 291.996 325.529 295.23 327.993 299.234V287.068H354.327V373H327.993V360.834C325.426 364.838 321.833 368.072 317.213 370.536C312.695 373 307.408 374.232 301.351 374.232C294.369 374.232 288.004 372.435 282.255 368.842C276.505 365.146 271.937 359.961 268.549 353.288C265.263 346.512 263.621 338.709 263.621 329.88ZM327.993 330.034C327.993 323.463 326.145 318.279 322.449 314.48C318.855 310.681 314.441 308.782 309.205 308.782C303.969 308.782 299.503 310.681 295.807 314.48C292.213 318.176 290.417 323.309 290.417 329.88C290.417 336.451 292.213 341.687 295.807 345.588C299.503 349.387 303.969 351.286 309.205 351.286C314.441 351.286 318.855 349.387 322.449 345.588C326.145 341.789 327.993 336.605 327.993 330.034ZM329.995 265.662L292.881 281.216V263.044L329.995 245.18V265.662ZM399.712 301.39C402.792 296.667 406.642 292.971 411.262 290.302C415.882 287.53 421.015 286.144 426.662 286.144V314.018H419.424C412.853 314.018 407.925 315.455 404.64 318.33C401.355 321.102 399.712 326.03 399.712 333.114V373H373.378V287.068H399.712V301.39ZM452.493 278.136C447.873 278.136 444.075 276.801 441.097 274.132C438.223 271.36 436.785 267.972 436.785 263.968C436.785 259.861 438.223 256.473 441.097 253.804C444.075 251.032 447.873 249.646 452.493 249.646C457.011 249.646 460.707 251.032 463.581 253.804C466.559 256.473 468.047 259.861 468.047 263.968C468.047 267.972 466.559 271.36 463.581 274.132C460.707 276.801 457.011 278.136 452.493 278.136ZM465.583 287.068V373H439.249V287.068H465.583ZM523.783 374.232C515.364 374.232 507.767 372.435 500.991 368.842C494.318 365.249 489.03 360.115 485.129 353.442C481.33 346.769 479.431 338.966 479.431 330.034C479.431 321.205 481.382 313.453 485.283 306.78C489.184 300.004 494.523 294.819 501.299 291.226C508.075 287.633 515.672 285.836 524.091 285.836C532.51 285.836 540.107 287.633 546.883 291.226C553.659 294.819 558.998 300.004 562.899 306.78C566.8 313.453 568.751 321.205 568.751 330.034C568.751 338.863 566.749 346.666 562.745 353.442C558.844 360.115 553.454 365.249 546.575 368.842C539.799 372.435 532.202 374.232 523.783 374.232ZM523.783 351.44C528.814 351.44 533.074 349.592 536.565 345.896C540.158 342.2 541.955 336.913 541.955 330.034C541.955 323.155 540.21 317.868 536.719 314.172C533.331 310.476 529.122 308.628 524.091 308.628C518.958 308.628 514.697 310.476 511.309 314.172C507.921 317.765 506.227 323.053 506.227 330.034C506.227 336.913 507.87 342.2 511.155 345.896C514.543 349.592 518.752 351.44 523.783 351.44Z" fill="#00A7ED"/>
<path d="M112.05 415.986V433.473H129.805V437.359H112.05V455.114H131.815V459H107.36V412.1H131.815V415.986H112.05ZM138.912 440.642C138.912 436.89 139.672 433.607 141.19 430.793C142.709 427.934 144.786 425.746 147.421 424.227C150.101 422.664 153.116 421.882 156.466 421.882C159.682 421.882 162.586 422.664 165.176 424.227C167.767 425.79 169.665 427.823 170.871 430.324V409.42H175.561V459H170.871V450.826C169.755 453.372 167.923 455.471 165.377 457.124C162.831 458.732 159.839 459.536 156.399 459.536C153.049 459.536 150.034 458.754 147.354 457.191C144.719 455.628 142.642 453.417 141.123 450.558C139.649 447.699 138.912 444.394 138.912 440.642ZM170.871 440.709C170.871 437.761 170.268 435.17 169.062 432.937C167.856 430.704 166.204 428.984 164.104 427.778C162.05 426.572 159.772 425.969 157.27 425.969C154.68 425.969 152.357 426.55 150.302 427.711C148.248 428.872 146.617 430.57 145.411 432.803C144.25 434.992 143.669 437.605 143.669 440.642C143.669 443.635 144.25 446.27 145.411 448.548C146.617 450.781 148.248 452.501 150.302 453.707C152.357 454.868 154.68 455.449 157.27 455.449C159.772 455.449 162.05 454.846 164.104 453.64C166.204 452.434 167.856 450.714 169.062 448.481C170.268 446.248 170.871 443.657 170.871 440.709ZM217.959 422.418V459H213.269V452.568C212.197 454.846 210.545 456.588 208.311 457.794C206.078 459 203.577 459.603 200.807 459.603C196.43 459.603 192.857 458.263 190.087 455.583C187.318 452.858 185.933 448.928 185.933 443.791V422.418H190.556V443.255C190.556 447.23 191.539 450.268 193.504 452.367C195.514 454.466 198.239 455.516 201.678 455.516C205.207 455.516 208.021 454.399 210.12 452.166C212.22 449.933 213.269 446.65 213.269 442.317V422.418H217.959ZM226.523 440.709C226.523 436.912 227.282 433.607 228.801 430.793C230.319 427.934 232.419 425.746 235.099 424.227C237.779 422.664 240.838 421.882 244.278 421.882C248.789 421.882 252.496 422.999 255.4 425.232C258.348 427.465 260.246 430.503 261.095 434.344H256.07C255.444 431.709 254.082 429.654 251.983 428.18C249.928 426.661 247.36 425.902 244.278 425.902C241.821 425.902 239.61 426.46 237.645 427.577C235.679 428.694 234.116 430.369 232.955 432.602C231.838 434.791 231.28 437.493 231.28 440.709C231.28 443.925 231.838 446.65 232.955 448.883C234.116 451.116 235.679 452.791 237.645 453.908C239.61 455.025 241.821 455.583 244.278 455.583C247.36 455.583 249.928 454.846 251.983 453.372C254.082 451.853 255.444 449.754 256.07 447.074H261.095C260.246 450.826 258.348 453.841 255.4 456.119C252.452 458.397 248.744 459.536 244.278 459.536C240.838 459.536 237.779 458.777 235.099 457.258C232.419 455.695 230.319 453.506 228.801 450.692C227.282 447.833 226.523 444.506 226.523 440.709ZM267.612 440.642C267.612 436.89 268.349 433.607 269.823 430.793C271.342 427.934 273.419 425.746 276.054 424.227C278.734 422.664 281.749 421.882 285.099 421.882C288.583 421.882 291.576 422.686 294.077 424.294C296.623 425.902 298.455 427.957 299.571 430.458V422.418H304.261V459H299.571V450.893C298.41 453.394 296.556 455.471 294.01 457.124C291.509 458.732 288.516 459.536 285.032 459.536C281.727 459.536 278.734 458.754 276.054 457.191C273.419 455.628 271.342 453.417 269.823 450.558C268.349 447.699 267.612 444.394 267.612 440.642ZM299.571 440.709C299.571 437.761 298.968 435.17 297.762 432.937C296.556 430.704 294.904 428.984 292.804 427.778C290.75 426.572 288.472 425.969 285.97 425.969C283.38 425.969 281.057 426.55 279.002 427.711C276.948 428.872 275.317 430.57 274.111 432.803C272.95 434.992 272.369 437.605 272.369 440.642C272.369 443.635 272.95 446.27 274.111 448.548C275.317 450.781 276.948 452.501 279.002 453.707C281.057 454.868 283.38 455.449 285.97 455.449C288.472 455.449 290.75 454.846 292.804 453.64C294.904 452.434 296.556 450.714 297.762 448.481C298.968 446.248 299.571 443.657 299.571 440.709ZM330.579 455.583C333.661 455.583 336.23 454.846 338.284 453.372C340.384 451.853 341.746 449.754 342.371 447.074H347.396C346.592 450.603 344.85 453.484 342.17 455.717C339.535 457.95 336.185 459.201 332.12 459.469V463.489C334.756 463.4 336.833 463.891 338.351 464.963C339.915 466.08 340.696 467.665 340.696 469.72C340.696 471.73 339.982 473.316 338.552 474.477C337.123 475.683 335.225 476.286 332.857 476.286H326.157V473.137H331.919C333.572 473.137 334.778 472.847 335.537 472.266C336.341 471.73 336.743 470.881 336.743 469.72C336.743 467.576 335.135 466.504 331.919 466.504H328.837V459.469C325.711 459.201 322.941 458.285 320.529 456.722C318.117 455.114 316.219 452.948 314.834 450.223C313.494 447.454 312.824 444.282 312.824 440.709C312.824 436.912 313.584 433.607 315.102 430.793C316.621 427.934 318.72 425.746 321.4 424.227C324.08 422.664 327.14 421.882 330.579 421.882C335.091 421.882 338.798 422.999 341.701 425.232C344.649 427.465 346.548 430.503 347.396 434.344H342.371C341.746 431.709 340.384 429.654 338.284 428.18C336.23 426.661 333.661 425.902 330.579 425.902C328.123 425.902 325.912 426.46 323.946 427.577C321.981 428.694 320.418 430.369 319.256 432.602C318.14 434.791 317.581 437.493 317.581 440.709C317.581 443.925 318.14 446.65 319.256 448.883C320.418 451.116 321.981 452.791 323.946 453.908C325.912 455.025 328.123 455.583 330.579 455.583ZM353.914 440.642C353.914 436.89 354.651 433.607 356.125 430.793C357.644 427.934 359.721 425.746 362.356 424.227C365.036 422.664 368.051 421.882 371.401 421.882C374.885 421.882 377.878 422.686 380.379 424.294C382.925 425.902 384.757 427.957 385.873 430.458V422.418H390.563V459H385.873V450.893C384.712 453.394 382.858 455.471 380.312 457.124C377.811 458.732 374.818 459.536 371.334 459.536C368.029 459.536 365.036 458.754 362.356 457.191C359.721 455.628 357.644 453.417 356.125 450.558C354.651 447.699 353.914 444.394 353.914 440.642ZM385.873 440.709C385.873 437.761 385.27 435.17 384.064 432.937C382.858 430.704 381.206 428.984 379.106 427.778C377.052 426.572 374.774 425.969 372.272 425.969C369.682 425.969 367.359 426.55 365.304 427.711C363.25 428.872 361.619 430.57 360.413 432.803C359.252 434.992 358.671 437.605 358.671 440.642C358.671 443.635 359.252 446.27 360.413 448.548C361.619 450.781 363.25 452.501 365.304 453.707C367.359 454.868 369.682 455.449 372.272 455.449C374.774 455.449 377.052 454.846 379.106 453.64C381.206 452.434 382.858 450.714 384.064 448.481C385.27 446.248 385.873 443.657 385.873 440.709ZM364.567 418.398C364.835 416.388 365.483 414.847 366.51 413.775C367.538 412.703 368.855 412.167 370.463 412.167C371.267 412.167 371.96 412.323 372.54 412.636C373.121 412.904 373.813 413.306 374.617 413.842C375.287 414.333 375.868 414.713 376.359 414.981C376.851 415.204 377.387 415.316 377.967 415.316C378.727 415.316 379.374 415.07 379.91 414.579C380.446 414.043 380.781 413.284 380.915 412.301H383.729C383.551 414.266 382.903 415.807 381.786 416.924C380.714 417.996 379.374 418.532 377.766 418.532C376.918 418.532 376.181 418.398 375.555 418.13C374.975 417.817 374.282 417.371 373.478 416.79C372.853 416.299 372.295 415.941 371.803 415.718C371.357 415.495 370.843 415.383 370.262 415.383C368.654 415.383 367.716 416.388 367.448 418.398H364.567ZM417.283 459.536C413.844 459.536 410.739 458.777 407.97 457.258C405.245 455.695 403.079 453.506 401.471 450.692C399.908 447.833 399.126 444.506 399.126 440.709C399.126 436.912 399.93 433.607 401.538 430.793C403.146 427.934 405.335 425.746 408.104 424.227C410.873 422.664 413.978 421.882 417.417 421.882C420.856 421.882 423.961 422.664 426.73 424.227C429.544 425.746 431.733 427.934 433.296 430.793C434.904 433.607 435.708 436.912 435.708 440.709C435.708 444.461 434.904 447.766 433.296 450.625C431.688 453.484 429.477 455.695 426.663 457.258C423.849 458.777 420.722 459.536 417.283 459.536ZM417.283 455.449C419.695 455.449 421.928 454.913 423.983 453.841C426.038 452.724 427.69 451.072 428.941 448.883C430.236 446.65 430.884 443.925 430.884 440.709C430.884 437.493 430.259 434.791 429.008 432.602C427.757 430.369 426.105 428.716 424.05 427.644C421.995 426.527 419.762 425.969 417.35 425.969C414.938 425.969 412.705 426.527 410.65 427.644C408.595 428.716 406.943 430.369 405.692 432.602C404.486 434.791 403.883 437.493 403.883 440.709C403.883 443.925 404.486 446.65 405.692 448.883C406.943 451.072 408.573 452.724 410.583 453.841C412.638 454.913 414.871 455.449 417.283 455.449ZM495.741 438.833C495.741 440.441 495.697 441.669 495.607 442.518H465.256C465.39 445.287 466.06 447.655 467.266 449.62C468.472 451.585 470.058 453.082 472.023 454.109C473.989 455.092 476.133 455.583 478.455 455.583C481.493 455.583 484.039 454.846 486.093 453.372C488.193 451.898 489.577 449.91 490.247 447.409H495.205C494.312 450.982 492.391 453.908 489.443 456.186C486.54 458.419 482.877 459.536 478.455 459.536C475.016 459.536 471.934 458.777 469.209 457.258C466.485 455.695 464.341 453.506 462.777 450.692C461.259 447.833 460.499 444.506 460.499 440.709C460.499 436.912 461.259 433.585 462.777 430.726C464.296 427.867 466.418 425.679 469.142 424.16C471.867 422.641 474.971 421.882 478.455 421.882C481.939 421.882 484.977 422.641 487.567 424.16C490.203 425.679 492.213 427.733 493.597 430.324C495.027 432.87 495.741 435.706 495.741 438.833ZM490.984 438.699C491.029 435.974 490.471 433.652 489.309 431.731C488.193 429.81 486.652 428.359 484.686 427.376C482.721 426.393 480.577 425.902 478.254 425.902C474.77 425.902 471.8 427.019 469.343 429.252C466.887 431.485 465.524 434.634 465.256 438.699H490.984ZM552.657 425.634C552.657 429.654 551.339 432.892 548.704 435.349C546.068 437.806 542.115 439.034 536.845 439.034H527.398V459H522.708V412.167H536.845C542.071 412.167 546.001 413.395 548.637 415.852C551.317 418.309 552.657 421.569 552.657 425.634ZM536.845 435.014C544.17 435.014 547.833 431.887 547.833 425.634C547.833 422.507 546.962 420.14 545.22 418.532C543.478 416.924 540.686 416.12 536.845 416.12H527.398V435.014H536.845ZM565.216 428.917C566.243 426.639 567.807 424.875 569.906 423.624C572.05 422.373 574.663 421.748 577.745 421.748V426.639H576.472C573.077 426.639 570.353 427.555 568.298 429.386C566.243 431.217 565.216 434.277 565.216 438.565V459H560.526V422.418H565.216V428.917ZM582.656 440.642C582.656 436.89 583.393 433.607 584.867 430.793C586.386 427.934 588.463 425.746 591.098 424.227C593.778 422.664 596.793 421.882 600.143 421.882C603.627 421.882 606.62 422.686 609.121 424.294C611.667 425.902 613.499 427.957 614.615 430.458V422.418H619.305V459H614.615V450.893C613.454 453.394 611.6 455.471 609.054 457.124C606.553 458.732 603.56 459.536 600.076 459.536C596.771 459.536 593.778 458.754 591.098 457.191C588.463 455.628 586.386 453.417 584.867 450.558C583.393 447.699 582.656 444.394 582.656 440.642ZM614.615 440.709C614.615 437.761 614.012 435.17 612.806 432.937C611.6 430.704 609.948 428.984 607.848 427.778C605.794 426.572 603.516 425.969 601.014 425.969C598.424 425.969 596.101 426.55 594.046 427.711C591.992 428.872 590.361 430.57 589.155 432.803C587.994 434.992 587.413 437.605 587.413 440.642C587.413 443.635 587.994 446.27 589.155 448.548C590.361 450.781 591.992 452.501 594.046 453.707C596.101 454.868 598.424 455.449 601.014 455.449C603.516 455.449 605.794 454.846 607.848 453.64C609.948 452.434 611.6 450.714 612.806 448.481C614.012 446.248 614.615 443.657 614.615 440.709ZM608.317 411.631L594.582 419.604V415.986L608.317 407.41V411.631ZM636.109 426.371V449.084C636.109 451.317 636.534 452.858 637.382 453.707C638.231 454.556 639.727 454.98 641.871 454.98H646.159V459H641.134C637.829 459 635.372 458.241 633.764 456.722C632.156 455.159 631.352 452.613 631.352 449.084V426.371H626.26V422.418H631.352V413.239H636.109V422.418H646.159V426.371H636.109ZM656.239 415.517C655.301 415.517 654.497 415.182 653.827 414.512C653.157 413.842 652.822 413.016 652.822 412.033C652.822 411.05 653.157 410.246 653.827 409.621C654.497 408.951 655.301 408.616 656.239 408.616C657.177 408.616 657.981 408.951 658.651 409.621C659.321 410.246 659.656 411.05 659.656 412.033C659.656 413.016 659.321 413.842 658.651 414.512C657.981 415.182 657.177 415.517 656.239 415.517ZM658.584 422.418V459H653.894V422.418H658.584ZM667.061 440.709C667.061 436.912 667.82 433.607 669.339 430.793C670.857 427.934 672.957 425.746 675.637 424.227C678.317 422.664 681.376 421.882 684.816 421.882C689.327 421.882 693.034 422.999 695.938 425.232C698.886 427.465 700.784 430.503 701.633 434.344H696.608C695.982 431.709 694.62 429.654 692.521 428.18C690.466 426.661 687.898 425.902 684.816 425.902C682.359 425.902 680.148 426.46 678.183 427.577C676.217 428.694 674.654 430.369 673.493 432.602C672.376 434.791 671.818 437.493 671.818 440.709C671.818 443.925 672.376 446.65 673.493 448.883C674.654 451.116 676.217 452.791 678.183 453.908C680.148 455.025 682.359 455.583 684.816 455.583C687.898 455.583 690.466 454.846 692.521 453.372C694.62 451.853 695.982 449.754 696.608 447.074H701.633C700.784 450.826 698.886 453.841 695.938 456.119C692.99 458.397 689.282 459.536 684.816 459.536C681.376 459.536 678.317 458.777 675.637 457.258C672.957 455.695 670.857 453.506 669.339 450.692C667.82 447.833 667.061 444.506 667.061 440.709ZM708.151 440.642C708.151 436.89 708.888 433.607 710.362 430.793C711.88 427.934 713.957 425.746 716.593 424.227C719.273 422.664 722.288 421.882 725.638 421.882C729.122 421.882 732.114 422.686 734.616 424.294C737.162 425.902 738.993 427.957 740.11 430.458V422.418H744.8V459H740.11V450.893C738.948 453.394 737.095 455.471 734.549 457.124C732.047 458.732 729.055 459.536 725.571 459.536C722.265 459.536 719.273 458.754 716.593 457.191C713.957 455.628 711.88 453.417 710.362 450.558C708.888 447.699 708.151 444.394 708.151 440.642ZM740.11 440.709C740.11 437.761 739.507 435.17 738.301 432.937C737.095 430.704 735.442 428.984 733.343 427.778C731.288 426.572 729.01 425.969 726.509 425.969C723.918 425.969 721.595 426.55 719.541 427.711C717.486 428.872 715.856 430.57 714.65 432.803C713.488 434.992 712.908 437.605 712.908 440.642C712.908 443.635 713.488 446.27 714.65 448.548C715.856 450.781 717.486 452.501 719.541 453.707C721.595 454.868 723.918 455.449 726.509 455.449C729.01 455.449 731.288 454.846 733.343 453.64C735.442 452.434 737.095 450.714 738.301 448.481C739.507 446.248 740.11 443.657 740.11 440.709ZM768.102 459.536C763.904 459.536 760.464 458.576 757.784 456.655C755.149 454.69 753.675 452.032 753.362 448.682H758.186C758.41 450.737 759.37 452.412 761.067 453.707C762.809 454.958 765.132 455.583 768.035 455.583C770.581 455.583 772.569 454.98 773.998 453.774C775.472 452.568 776.209 451.072 776.209 449.285C776.209 448.034 775.807 447.007 775.003 446.203C774.199 445.399 773.172 444.774 771.921 444.327C770.715 443.836 769.063 443.322 766.963 442.786C764.239 442.071 762.028 441.357 760.33 440.642C758.633 439.927 757.181 438.878 755.975 437.493C754.814 436.064 754.233 434.165 754.233 431.798C754.233 430.011 754.769 428.359 755.841 426.84C756.913 425.321 758.432 424.115 760.397 423.222C762.363 422.329 764.596 421.882 767.097 421.882C771.028 421.882 774.199 422.887 776.611 424.897C779.023 426.862 780.319 429.587 780.497 433.071H775.807C775.673 430.927 774.825 429.207 773.261 427.912C771.743 426.572 769.643 425.902 766.963 425.902C764.596 425.902 762.675 426.46 761.201 427.577C759.727 428.694 758.99 430.078 758.99 431.731C758.99 433.16 759.415 434.344 760.263 435.282C761.157 436.175 762.251 436.89 763.546 437.426C764.842 437.917 766.584 438.476 768.772 439.101C771.408 439.816 773.507 440.508 775.07 441.178C776.634 441.848 777.974 442.831 779.09 444.126C780.207 445.421 780.788 447.141 780.832 449.285C780.832 451.25 780.296 453.015 779.224 454.578C778.152 456.097 776.656 457.303 774.735 458.196C772.815 459.089 770.604 459.536 768.102 459.536ZM121.564 560.469C118.482 560.469 115.757 559.933 113.39 558.861C111.067 557.789 109.236 556.293 107.896 554.372C106.556 552.451 105.841 550.307 105.752 547.94H110.71C110.933 550.218 111.938 552.228 113.725 553.97C115.512 555.667 118.125 556.516 121.564 556.516C124.735 556.516 127.237 555.712 129.068 554.104C130.944 552.451 131.882 550.374 131.882 547.873C131.882 545.863 131.368 544.255 130.341 543.049C129.314 541.798 128.041 540.883 126.522 540.302C125.003 539.677 122.904 539.007 120.224 538.292C117.097 537.443 114.618 536.617 112.787 535.813C110.956 535.009 109.392 533.758 108.097 532.061C106.802 530.364 106.154 528.063 106.154 525.16C106.154 522.748 106.779 520.604 108.03 518.728C109.281 516.807 111.045 515.311 113.323 514.239C115.601 513.167 118.214 512.631 121.162 512.631C125.495 512.631 128.979 513.703 131.614 515.847C134.294 517.946 135.835 520.671 136.237 524.021H131.145C130.832 522.1 129.783 520.403 127.996 518.929C126.209 517.41 123.797 516.651 120.76 516.651C117.946 516.651 115.601 517.41 113.725 518.929C111.849 520.403 110.911 522.435 110.911 525.026C110.911 526.991 111.425 528.577 112.452 529.783C113.479 530.989 114.752 531.905 116.271 532.53C117.834 533.155 119.934 533.825 122.569 534.54C125.606 535.389 128.063 536.237 129.939 537.086C131.815 537.89 133.401 539.141 134.696 540.838C135.991 542.535 136.639 544.813 136.639 547.672C136.639 549.861 136.058 551.938 134.897 553.903C133.736 555.868 132.016 557.454 129.738 558.66C127.46 559.866 124.735 560.469 121.564 560.469ZM177.393 523.418V560H172.703V553.568C171.631 555.846 169.978 557.588 167.745 558.794C165.511 560 163.01 560.603 160.241 560.603C155.863 560.603 152.29 559.263 149.521 556.583C146.751 553.858 145.367 549.928 145.367 544.791V523.418H149.99V544.255C149.99 548.23 150.972 551.268 152.938 553.367C154.948 555.466 157.672 556.516 161.112 556.516C164.64 556.516 167.454 555.399 169.554 553.166C171.653 550.933 172.703 547.65 172.703 543.317V523.418H177.393ZM200.696 560.536C196.498 560.536 193.058 559.576 190.378 557.655C187.743 555.69 186.269 553.032 185.956 549.682H190.78C191.004 551.737 191.964 553.412 193.661 554.707C195.403 555.958 197.726 556.583 200.629 556.583C203.175 556.583 205.163 555.98 206.592 554.774C208.066 553.568 208.803 552.072 208.803 550.285C208.803 549.034 208.401 548.007 207.597 547.203C206.793 546.399 205.766 545.774 204.515 545.327C203.309 544.836 201.657 544.322 199.557 543.786C196.833 543.071 194.622 542.357 192.924 541.642C191.227 540.927 189.775 539.878 188.569 538.493C187.408 537.064 186.827 535.165 186.827 532.798C186.827 531.011 187.363 529.359 188.435 527.84C189.507 526.321 191.026 525.115 192.991 524.222C194.957 523.329 197.19 522.882 199.691 522.882C203.622 522.882 206.793 523.887 209.205 525.897C211.617 527.862 212.913 530.587 213.091 534.071H208.401C208.267 531.927 207.419 530.207 205.855 528.912C204.337 527.572 202.237 526.902 199.557 526.902C197.19 526.902 195.269 527.46 193.795 528.577C192.321 529.694 191.584 531.078 191.584 532.731C191.584 534.16 192.009 535.344 192.857 536.282C193.751 537.175 194.845 537.89 196.14 538.426C197.436 538.917 199.178 539.476 201.366 540.101C204.002 540.816 206.101 541.508 207.664 542.178C209.228 542.848 210.568 543.831 211.684 545.126C212.801 546.421 213.382 548.141 213.426 550.285C213.426 552.25 212.89 554.015 211.818 555.578C210.746 557.097 209.25 558.303 207.329 559.196C205.409 560.089 203.198 560.536 200.696 560.536ZM228.352 527.371V550.084C228.352 552.317 228.776 553.858 229.625 554.707C230.473 555.556 231.97 555.98 234.114 555.98H238.402V560H233.377C230.071 560 227.615 559.241 226.007 557.722C224.399 556.159 223.595 553.613 223.595 550.084V527.371H218.503V523.418H223.595V514.239H228.352V523.418H238.402V527.371H228.352ZM279.234 539.833C279.234 541.441 279.19 542.669 279.1 543.518H248.749C248.883 546.287 249.553 548.655 250.759 550.62C251.965 552.585 253.551 554.082 255.516 555.109C257.482 556.092 259.626 556.583 261.948 556.583C264.986 556.583 267.532 555.846 269.586 554.372C271.686 552.898 273.07 550.91 273.74 548.409H278.698C277.805 551.982 275.884 554.908 272.936 557.186C270.033 559.419 266.37 560.536 261.948 560.536C258.509 560.536 255.427 559.777 252.702 558.258C249.978 556.695 247.834 554.506 246.27 551.692C244.752 548.833 243.992 545.506 243.992 541.709C243.992 537.912 244.752 534.585 246.27 531.726C247.789 528.867 249.911 526.679 252.635 525.16C255.36 523.641 258.464 522.882 261.948 522.882C265.432 522.882 268.47 523.641 271.06 525.16C273.696 526.679 275.706 528.733 277.09 531.324C278.52 533.87 279.234 536.706 279.234 539.833ZM274.477 539.699C274.522 536.974 273.964 534.652 272.802 532.731C271.686 530.81 270.145 529.359 268.179 528.376C266.214 527.393 264.07 526.902 261.747 526.902C258.263 526.902 255.293 528.019 252.836 530.252C250.38 532.485 249.017 535.634 248.749 539.699H274.477ZM304.967 522.748C309.344 522.748 312.918 524.11 315.687 526.835C318.456 529.515 319.841 533.423 319.841 538.56V560H315.218V539.096C315.218 535.121 314.213 532.083 312.203 529.984C310.238 527.885 307.535 526.835 304.096 526.835C300.567 526.835 297.753 527.952 295.654 530.185C293.555 532.418 292.505 535.701 292.505 540.034V560H287.815V523.418H292.505V529.649C293.666 527.416 295.341 525.718 297.53 524.557C299.719 523.351 302.198 522.748 304.967 522.748ZM336.311 527.371V550.084C336.311 552.317 336.735 553.858 337.584 554.707C338.432 555.556 339.929 555.98 342.073 555.98H346.361V560H341.336C338.03 560 335.574 559.241 333.966 557.722C332.358 556.159 331.554 553.613 331.554 550.084V527.371H326.462V523.418H331.554V514.239H336.311V523.418H346.361V527.371H336.311ZM351.951 541.642C351.951 537.89 352.688 534.607 354.162 531.793C355.681 528.934 357.758 526.746 360.393 525.227C363.073 523.664 366.088 522.882 369.438 522.882C372.922 522.882 375.915 523.686 378.416 525.294C380.962 526.902 382.794 528.957 383.91 531.458V523.418H388.6V560H383.91V551.893C382.749 554.394 380.895 556.471 378.349 558.124C375.848 559.732 372.855 560.536 369.371 560.536C366.066 560.536 363.073 559.754 360.393 558.191C357.758 556.628 355.681 554.417 354.162 551.558C352.688 548.699 351.951 545.394 351.951 541.642ZM383.91 541.709C383.91 538.761 383.307 536.17 382.101 533.937C380.895 531.704 379.243 529.984 377.143 528.778C375.089 527.572 372.811 526.969 370.309 526.969C367.719 526.969 365.396 527.55 363.341 528.711C361.287 529.872 359.656 531.57 358.45 533.803C357.289 535.992 356.708 538.605 356.708 541.642C356.708 544.635 357.289 547.27 358.45 549.548C359.656 551.781 361.287 553.501 363.341 554.707C365.396 555.868 367.719 556.449 370.309 556.449C372.811 556.449 375.089 555.846 377.143 554.64C379.243 553.434 380.895 551.714 382.101 549.481C383.307 547.248 383.91 544.657 383.91 541.709ZM377.612 512.631L363.877 520.604V516.986L377.612 508.41V512.631ZM412.305 555.444L424.633 523.418H429.591L414.918 560H409.625L394.952 523.418H399.977L412.305 555.444ZM469.046 539.833C469.046 541.441 469.001 542.669 468.912 543.518H438.561C438.695 546.287 439.365 548.655 440.571 550.62C441.777 552.585 443.363 554.082 445.328 555.109C447.293 556.092 449.437 556.583 451.76 556.583C454.797 556.583 457.343 555.846 459.398 554.372C461.497 552.898 462.882 550.91 463.552 548.409H468.51C467.617 551.982 465.696 554.908 462.748 557.186C459.845 559.419 456.182 560.536 451.76 560.536C448.321 560.536 445.239 559.777 442.514 558.258C439.789 556.695 437.645 554.506 436.082 551.692C434.563 548.833 433.804 545.506 433.804 541.709C433.804 537.912 434.563 534.585 436.082 531.726C437.601 528.867 439.722 526.679 442.447 525.16C445.172 523.641 448.276 522.882 451.76 522.882C455.244 522.882 458.281 523.641 460.872 525.16C463.507 526.679 465.517 528.733 466.902 531.324C468.331 533.87 469.046 536.706 469.046 539.833ZM464.289 539.699C464.334 536.974 463.775 534.652 462.614 532.731C461.497 530.81 459.956 529.359 457.991 528.376C456.026 527.393 453.882 526.902 451.559 526.902C448.075 526.902 445.105 528.019 442.648 530.252C440.191 532.485 438.829 535.634 438.561 539.699H464.289ZM479.972 516.517C479.034 516.517 478.23 516.182 477.56 515.512C476.89 514.842 476.555 514.016 476.555 513.033C476.555 512.05 476.89 511.246 477.56 510.621C478.23 509.951 479.034 509.616 479.972 509.616C480.91 509.616 481.714 509.951 482.384 510.621C483.054 511.246 483.389 512.05 483.389 513.033C483.389 514.016 483.054 514.842 482.384 515.512C481.714 516.182 480.91 516.517 479.972 516.517ZM482.317 523.418V560H477.627V523.418H482.317ZM505.533 560.536C501.334 560.536 497.895 559.576 495.215 557.655C492.58 555.69 491.106 553.032 490.793 549.682H495.617C495.84 551.737 496.801 553.412 498.498 554.707C500.24 555.958 502.563 556.583 505.466 556.583C508.012 556.583 510 555.98 511.429 554.774C512.903 553.568 513.64 552.072 513.64 550.285C513.64 549.034 513.238 548.007 512.434 547.203C511.63 546.399 510.603 545.774 509.352 545.327C508.146 544.836 506.493 544.322 504.394 543.786C501.669 543.071 499.458 542.357 497.761 541.642C496.064 540.927 494.612 539.878 493.406 538.493C492.245 537.064 491.664 535.165 491.664 532.798C491.664 531.011 492.2 529.359 493.272 527.84C494.344 526.321 495.863 525.115 497.828 524.222C499.793 523.329 502.027 522.882 504.528 522.882C508.459 522.882 511.63 523.887 514.042 525.897C516.454 527.862 517.749 530.587 517.928 534.071H513.238C513.104 531.927 512.255 530.207 510.692 528.912C509.173 527.572 507.074 526.902 504.394 526.902C502.027 526.902 500.106 527.46 498.632 528.577C497.158 529.694 496.421 531.078 496.421 532.731C496.421 534.16 496.845 535.344 497.694 536.282C498.587 537.175 499.682 537.89 500.977 538.426C502.272 538.917 504.014 539.476 506.203 540.101C508.838 540.816 510.938 541.508 512.501 542.178C514.064 542.848 515.404 543.831 516.521 545.126C517.638 546.421 518.218 548.141 518.263 550.285C518.263 552.25 517.727 554.015 516.655 555.578C515.583 557.097 514.087 558.303 512.166 559.196C510.245 560.089 508.034 560.536 505.533 560.536Z" fill="#555555"/>
</svg>
